<svg width="162" height="138" viewBox="0 0 162 138" fill="none" xmlns="http://www.w3.org/2000/svg">
<g id="Group 1">
<ellipse id="Ellipse 1" cx="4" cy="74.4968" rx="4" ry="3.91775" fill="#357C12"/>
<ellipse id="Ellipse 73" cx="4" cy="3.97726" rx="4" ry="3.91775" fill="#357C12"/>
<ellipse id="Ellipse 37" cx="88" cy="74.4968" rx="4" ry="3.91775" fill="#357C12"/>
<ellipse id="Ellipse 74" cx="88" cy="3.97726" rx="4" ry="3.91775" fill="#357C12"/>
<ellipse id="Ellipse 19" cx="4" cy="109.756" rx="4" ry="3.91775" fill="#357C12"/>
<ellipse id="Ellipse 75" cx="4" cy="39.237" rx="4" ry="3.91775" fill="#357C12"/>
<ellipse id="Ellipse 38" cx="88" cy="109.756" rx="4" ry="3.91775" fill="#357C12"/>
<ellipse id="Ellipse 76" cx="88" cy="39.237" rx="4" ry="3.91775" fill="#357C12"/>
<ellipse id="Ellipse 7" cx="4" cy="86.25" rx="4" ry="3.91775" fill="#357C12"/>
<ellipse id="Ellipse 77" cx="4" cy="15.7305" rx="4" ry="3.91775" fill="#357C12"/>
<ellipse id="Ellipse 39" cx="88" cy="86.25" rx="4" ry="3.91775" fill="#357C12"/>
<ellipse id="Ellipse 78" cx="88" cy="15.7305" rx="4" ry="3.91775" fill="#357C12"/>
<ellipse id="Ellipse 20" cx="4" cy="121.51" rx="4" ry="3.91775" fill="#357C12"/>
<ellipse id="Ellipse 79" cx="4" cy="50.9903" rx="4" ry="3.91775" fill="#357C12"/>
<ellipse id="Ellipse 40" cx="88" cy="121.51" rx="4" ry="3.91775" fill="#357C12"/>
<ellipse id="Ellipse 80" cx="88" cy="50.9903" rx="4" ry="3.91775" fill="#357C12"/>
<ellipse id="Ellipse 13" cx="4" cy="98.0033" rx="4" ry="3.91775" fill="#357C12"/>
<ellipse id="Ellipse 81" cx="4" cy="27.4838" rx="4" ry="3.91775" fill="#357C12"/>
<ellipse id="Ellipse 41" cx="88" cy="98.0033" rx="4" ry="3.91775" fill="#357C12"/>
<ellipse id="Ellipse 82" cx="88" cy="27.4838" rx="4" ry="3.91775" fill="#357C12"/>
<ellipse id="Ellipse 21" cx="4" cy="133.263" rx="4" ry="3.91775" fill="#357C12"/>
<ellipse id="Ellipse 83" cx="4" cy="62.7435" rx="4" ry="3.91775" fill="#357C12"/>
<ellipse id="Ellipse 42" cx="88" cy="133.263" rx="4" ry="3.91775" fill="#357C12"/>
<ellipse id="Ellipse 84" cx="88" cy="62.7435" rx="4" ry="3.91775" fill="#357C12"/>
<ellipse id="Ellipse 4" cx="46" cy="74.4968" rx="4" ry="3.91775" fill="#357C12"/>
<ellipse id="Ellipse 85" cx="46" cy="3.97726" rx="4" ry="3.91775" fill="#357C12"/>
<ellipse id="Ellipse 43" cx="130" cy="74.4968" rx="4" ry="3.91775" fill="#357C12"/>
<ellipse id="Ellipse 86" cx="130" cy="3.97726" rx="4" ry="3.91775" fill="#357C12"/>
<ellipse id="Ellipse 22" cx="46" cy="109.756" rx="4" ry="3.91775" fill="#357C12"/>
<ellipse id="Ellipse 87" cx="46" cy="39.237" rx="4" ry="3.91775" fill="#357C12"/>
<ellipse id="Ellipse 44" cx="130" cy="109.756" rx="4" ry="3.91775" fill="#357C12"/>
<ellipse id="Ellipse 88" cx="130" cy="39.237" rx="4" ry="3.91775" fill="#357C12"/>
<ellipse id="Ellipse 8" cx="46" cy="86.25" rx="4" ry="3.91775" fill="#357C12"/>
<ellipse id="Ellipse 89" cx="46" cy="15.7305" rx="4" ry="3.91775" fill="#357C12"/>
<ellipse id="Ellipse 45" cx="130" cy="86.25" rx="4" ry="3.91775" fill="#357C12"/>
<ellipse id="Ellipse 90" cx="130" cy="15.7305" rx="4" ry="3.91775" fill="#357C12"/>
<ellipse id="Ellipse 23" cx="46" cy="121.51" rx="4" ry="3.91775" fill="#357C12"/>
<ellipse id="Ellipse 91" cx="46" cy="50.9903" rx="4" ry="3.91775" fill="#357C12"/>
<ellipse id="Ellipse 46" cx="130" cy="121.51" rx="4" ry="3.91775" fill="#357C12"/>
<ellipse id="Ellipse 92" cx="130" cy="50.9903" rx="4" ry="3.91775" fill="#357C12"/>
<ellipse id="Ellipse 14" cx="46" cy="98.0033" rx="4" ry="3.91775" fill="#357C12"/>
<ellipse id="Ellipse 93" cx="46" cy="27.4838" rx="4" ry="3.91775" fill="#357C12"/>
<ellipse id="Ellipse 47" cx="130" cy="98.0033" rx="4" ry="3.91775" fill="#357C12"/>
<ellipse id="Ellipse 94" cx="130" cy="27.4838" rx="4" ry="3.91775" fill="#357C12"/>
<ellipse id="Ellipse 24" cx="46" cy="133.263" rx="4" ry="3.91775" fill="#357C12"/>
<ellipse id="Ellipse 95" cx="46" cy="62.7435" rx="4" ry="3.91775" fill="#357C12"/>
<ellipse id="Ellipse 48" cx="130" cy="133.263" rx="4" ry="3.91775" fill="#357C12"/>
<ellipse id="Ellipse 96" cx="130" cy="62.7435" rx="4" ry="3.91775" fill="#357C12"/>
<ellipse id="Ellipse 2" cx="18" cy="74.4968" rx="4" ry="3.91775" fill="#357C12"/>
<ellipse id="Ellipse 97" cx="18" cy="3.97726" rx="4" ry="3.91775" fill="#357C12"/>
<ellipse id="Ellipse 49" cx="102" cy="74.4968" rx="4" ry="3.91775" fill="#357C12"/>
<ellipse id="Ellipse 98" cx="102" cy="3.97726" rx="4" ry="3.91775" fill="#357C12"/>
<ellipse id="Ellipse 25" cx="18" cy="109.756" rx="4" ry="3.91775" fill="#357C12"/>
<ellipse id="Ellipse 99" cx="18" cy="39.237" rx="4" ry="3.91775" fill="#357C12"/>
<ellipse id="Ellipse 50" cx="102" cy="109.756" rx="4" ry="3.91775" fill="#357C12"/>
<ellipse id="Ellipse 100" cx="102" cy="39.237" rx="4" ry="3.91775" fill="#357C12"/>
<ellipse id="Ellipse 9" cx="18" cy="86.25" rx="4" ry="3.91775" fill="#357C12"/>
<ellipse id="Ellipse 101" cx="18" cy="15.7305" rx="4" ry="3.91775" fill="#357C12"/>
<ellipse id="Ellipse 51" cx="102" cy="86.25" rx="4" ry="3.91775" fill="#357C12"/>
<ellipse id="Ellipse 102" cx="102" cy="15.7305" rx="4" ry="3.91775" fill="#357C12"/>
<ellipse id="Ellipse 26" cx="18" cy="121.51" rx="4" ry="3.91775" fill="#357C12"/>
<ellipse id="Ellipse 103" cx="18" cy="50.9903" rx="4" ry="3.91775" fill="#357C12"/>
<ellipse id="Ellipse 52" cx="102" cy="121.51" rx="4" ry="3.91775" fill="#357C12"/>
<ellipse id="Ellipse 104" cx="102" cy="50.9903" rx="4" ry="3.91775" fill="#357C12"/>
<ellipse id="Ellipse 15" cx="18" cy="98.0033" rx="4" ry="3.91775" fill="#357C12"/>
<ellipse id="Ellipse 105" cx="18" cy="27.4838" rx="4" ry="3.91775" fill="#357C12"/>
<ellipse id="Ellipse 53" cx="102" cy="98.0033" rx="4" ry="3.91775" fill="#357C12"/>
<ellipse id="Ellipse 106" cx="102" cy="27.4838" rx="4" ry="3.91775" fill="#357C12"/>
<ellipse id="Ellipse 27" cx="18" cy="133.263" rx="4" ry="3.91775" fill="#357C12"/>
<ellipse id="Ellipse 107" cx="18" cy="62.7435" rx="4" ry="3.91775" fill="#357C12"/>
<ellipse id="Ellipse 54" cx="102" cy="133.263" rx="4" ry="3.91775" fill="#357C12"/>
<ellipse id="Ellipse 108" cx="102" cy="62.7435" rx="4" ry="3.91775" fill="#357C12"/>
<ellipse id="Ellipse 5" cx="60" cy="74.4968" rx="4" ry="3.91775" fill="#357C12"/>
<ellipse id="Ellipse 109" cx="60" cy="3.97726" rx="4" ry="3.91775" fill="#357C12"/>
<ellipse id="Ellipse 55" cx="144" cy="74.4968" rx="4" ry="3.91775" fill="#357C12"/>
<ellipse id="Ellipse 110" cx="144" cy="3.97726" rx="4" ry="3.91775" fill="#357C12"/>
<ellipse id="Ellipse 28" cx="60" cy="109.756" rx="4" ry="3.91775" fill="#357C12"/>
<ellipse id="Ellipse 111" cx="60" cy="39.237" rx="4" ry="3.91775" fill="#357C12"/>
<ellipse id="Ellipse 56" cx="144" cy="109.756" rx="4" ry="3.91775" fill="#357C12"/>
<ellipse id="Ellipse 112" cx="144" cy="39.237" rx="4" ry="3.91775" fill="#357C12"/>
<ellipse id="Ellipse 10" cx="60" cy="86.25" rx="4" ry="3.91775" fill="#357C12"/>
<ellipse id="Ellipse 113" cx="60" cy="15.7305" rx="4" ry="3.91775" fill="#357C12"/>
<ellipse id="Ellipse 57" cx="144" cy="86.25" rx="4" ry="3.91775" fill="#357C12"/>
<ellipse id="Ellipse 114" cx="144" cy="15.7305" rx="4" ry="3.91775" fill="#357C12"/>
<ellipse id="Ellipse 29" cx="60" cy="121.51" rx="4" ry="3.91775" fill="#357C12"/>
<ellipse id="Ellipse 115" cx="60" cy="50.9903" rx="4" ry="3.91775" fill="#357C12"/>
<ellipse id="Ellipse 58" cx="144" cy="121.51" rx="4" ry="3.91775" fill="#357C12"/>
<ellipse id="Ellipse 116" cx="144" cy="50.9903" rx="4" ry="3.91775" fill="#357C12"/>
<ellipse id="Ellipse 16" cx="60" cy="98.0033" rx="4" ry="3.91775" fill="#357C12"/>
<ellipse id="Ellipse 117" cx="60" cy="27.4838" rx="4" ry="3.91775" fill="#357C12"/>
<ellipse id="Ellipse 59" cx="144" cy="98.0033" rx="4" ry="3.91775" fill="#357C12"/>
<ellipse id="Ellipse 118" cx="144" cy="27.4838" rx="4" ry="3.91775" fill="#357C12"/>
<ellipse id="Ellipse 30" cx="60" cy="133.263" rx="4" ry="3.91775" fill="#357C12"/>
<ellipse id="Ellipse 119" cx="60" cy="62.7435" rx="4" ry="3.91775" fill="#357C12"/>
<ellipse id="Ellipse 60" cx="144" cy="133.263" rx="4" ry="3.91775" fill="#357C12"/>
<ellipse id="Ellipse 120" cx="144" cy="62.7435" rx="4" ry="3.91775" fill="#357C12"/>
<ellipse id="Ellipse 3" cx="32" cy="74.4968" rx="4" ry="3.91775" fill="#357C12"/>
<ellipse id="Ellipse 121" cx="32" cy="3.97726" rx="4" ry="3.91775" fill="#357C12"/>
<ellipse id="Ellipse 61" cx="116" cy="74.4968" rx="4" ry="3.91775" fill="#357C12"/>
<ellipse id="Ellipse 122" cx="116" cy="3.97726" rx="4" ry="3.91775" fill="#357C12"/>
<ellipse id="Ellipse 31" cx="32" cy="109.756" rx="4" ry="3.91775" fill="#357C12"/>
<ellipse id="Ellipse 123" cx="32" cy="39.237" rx="4" ry="3.91775" fill="#357C12"/>
<ellipse id="Ellipse 62" cx="116" cy="109.756" rx="4" ry="3.91775" fill="#357C12"/>
<ellipse id="Ellipse 124" cx="116" cy="39.237" rx="4" ry="3.91775" fill="#357C12"/>
<ellipse id="Ellipse 11" cx="32" cy="86.25" rx="4" ry="3.91775" fill="#357C12"/>
<ellipse id="Ellipse 125" cx="32" cy="15.7305" rx="4" ry="3.91775" fill="#357C12"/>
<ellipse id="Ellipse 63" cx="116" cy="86.25" rx="4" ry="3.91775" fill="#357C12"/>
<ellipse id="Ellipse 126" cx="116" cy="15.7305" rx="4" ry="3.91775" fill="#357C12"/>
<ellipse id="Ellipse 32" cx="32" cy="121.51" rx="4" ry="3.91775" fill="#357C12"/>
<ellipse id="Ellipse 127" cx="32" cy="50.9903" rx="4" ry="3.91775" fill="#357C12"/>
<ellipse id="Ellipse 64" cx="116" cy="121.51" rx="4" ry="3.91775" fill="#357C12"/>
<ellipse id="Ellipse 128" cx="116" cy="50.9903" rx="4" ry="3.91775" fill="#357C12"/>
<ellipse id="Ellipse 17" cx="32" cy="98.0033" rx="4" ry="3.91775" fill="#357C12"/>
<ellipse id="Ellipse 129" cx="32" cy="27.4838" rx="4" ry="3.91775" fill="#357C12"/>
<ellipse id="Ellipse 65" cx="116" cy="98.0033" rx="4" ry="3.91775" fill="#357C12"/>
<ellipse id="Ellipse 130" cx="116" cy="27.4838" rx="4" ry="3.91775" fill="#357C12"/>
<ellipse id="Ellipse 33" cx="32" cy="133.263" rx="4" ry="3.91775" fill="#357C12"/>
<ellipse id="Ellipse 131" cx="32" cy="62.7435" rx="4" ry="3.91775" fill="#357C12"/>
<ellipse id="Ellipse 66" cx="116" cy="133.263" rx="4" ry="3.91775" fill="#357C12"/>
<ellipse id="Ellipse 132" cx="116" cy="62.7435" rx="4" ry="3.91775" fill="#357C12"/>
<ellipse id="Ellipse 6" cx="74" cy="74.4968" rx="4" ry="3.91775" fill="#357C12"/>
<ellipse id="Ellipse 133" cx="74" cy="3.97726" rx="4" ry="3.91775" fill="#357C12"/>
<ellipse id="Ellipse 67" cx="158" cy="74.4968" rx="4" ry="3.91775" fill="#357C12"/>
<ellipse id="Ellipse 134" cx="158" cy="3.97726" rx="4" ry="3.91775" fill="#357C12"/>
<ellipse id="Ellipse 34" cx="74" cy="109.756" rx="4" ry="3.91775" fill="#357C12"/>
<ellipse id="Ellipse 135" cx="74" cy="39.237" rx="4" ry="3.91775" fill="#357C12"/>
<ellipse id="Ellipse 68" cx="158" cy="109.756" rx="4" ry="3.91775" fill="#357C12"/>
<ellipse id="Ellipse 136" cx="158" cy="39.237" rx="4" ry="3.91775" fill="#357C12"/>
<ellipse id="Ellipse 12" cx="74" cy="86.25" rx="4" ry="3.91775" fill="#357C12"/>
<ellipse id="Ellipse 137" cx="74" cy="15.7305" rx="4" ry="3.91775" fill="#357C12"/>
<ellipse id="Ellipse 69" cx="158" cy="86.25" rx="4" ry="3.91775" fill="#357C12"/>
<ellipse id="Ellipse 138" cx="158" cy="15.7305" rx="4" ry="3.91775" fill="#357C12"/>
<ellipse id="Ellipse 35" cx="74" cy="121.51" rx="4" ry="3.91775" fill="#357C12"/>
<ellipse id="Ellipse 139" cx="74" cy="50.9903" rx="4" ry="3.91775" fill="#357C12"/>
<ellipse id="Ellipse 70" cx="158" cy="121.51" rx="4" ry="3.91775" fill="#357C12"/>
<ellipse id="Ellipse 140" cx="158" cy="50.9903" rx="4" ry="3.91775" fill="#357C12"/>
<ellipse id="Ellipse 18" cx="74" cy="98.0033" rx="4" ry="3.91775" fill="#357C12"/>
<ellipse id="Ellipse 141" cx="74" cy="27.4838" rx="4" ry="3.91775" fill="#357C12"/>
<ellipse id="Ellipse 71" cx="158" cy="98.0033" rx="4" ry="3.91775" fill="#357C12"/>
<ellipse id="Ellipse 142" cx="158" cy="27.4838" rx="4" ry="3.91775" fill="#357C12"/>
<ellipse id="Ellipse 36" cx="74" cy="133.263" rx="4" ry="3.91775" fill="#357C12"/>
<ellipse id="Ellipse 143" cx="74" cy="62.7435" rx="4" ry="3.91775" fill="#357C12"/>
<ellipse id="Ellipse 72" cx="158" cy="133.263" rx="4" ry="3.91775" fill="#357C12"/>
<ellipse id="Ellipse 144" cx="158" cy="62.7435" rx="4" ry="3.91775" fill="#357C12"/>
</g>
</svg>
